<svg xmlns="http://www.w3.org/2000/svg" width="1200" height="630" viewBox="0 0 1200 630">
  <defs>
    <linearGradient id="bgGradient" x1="0%" y1="0%" x2="100%" y2="100%">
      <stop offset="0%" stop-color="#111827" />
      <stop offset="50%" stop-color="#4A1D96" />
      <stop offset="100%" stop-color="#111827" />
    </linearGradient>
    <linearGradient id="logoGradient" x1="0%" y1="0%" x2="100%" y2="100%">
      <stop offset="0%" stop-color="#9333EA" />
      <stop offset="100%" stop-color="#4F46E5" />
    </linearGradient>
  </defs>
  
  <!-- Background -->
  <rect width="100%" height="100%" fill="url(#bgGradient)" />
  
  <!-- Grid pattern -->
  <g opacity="0.1" stroke="#8B5CF6">
    <g>
      {Array.from({ length: 14 }).map((_, i) => (
        <line key={`h-${i}`} x1="0" y1={i * 50} x2="1200" y2={i * 50} strokeWidth="1" />
      ))}
      {Array.from({ length: 25 }).map((_, i) => (
        <line key={`v-${i}`} x1={i * 50} y1="0" x2={i * 50} y2="630" strokeWidth="1" />
      ))}
    </g>
  </g>
  
  <!-- Curve -->
  <path d="M 200,500 Q 400,450 600,350 Q 800,250 1000,150" fill="none" stroke="#8B5CF6" stroke-width="5" />
  <path d="M 200,500 Q 400,450 600,350 Q 800,250 1000,150 L 1000,630 L 200,630 Z" fill="#8B5CF6" opacity="0.2" />
  
  <!-- Logo & Text -->
  <g transform="translate(600, 315)" text-anchor="middle">
    <g transform="translate(-450, -40)">
      <circle cx="60" cy="60" r="50" fill="url(#logoGradient)" />
      <path d="M 70,20 L 90,20 C 95,20 100,25 100,30 L 100,90 C 100,95 95,100 90,100 L 70,100 C 65,100 60,95 60,90 L 60,30 C 60,25 65,20 70,20 Z M 40,30 L 60,30 C 65,30 70,35 70,40 L 70,80 C 70,85 65,90 60,90 L 40,90 C 35,90 30,85 30,80 L 30,40 C 30,35 35,30 40,30 Z M 10,45 L 30,45 C 35,45 40,50 40,55 L 40,80 C 40,85 35,90 30,90 L 10,90 C 5,90 0,85 0,80 L 0,55 C 0,50 5,45 10,45 Z" fill="white" />
    </g>
    
    <text x="0" y="-20" font-family="Arial, sans-serif" font-weight="bold" font-size="60" fill="white">CurveLaunch</text>
    <text x="0" y="40" font-family="Arial, sans-serif" font-size="30" fill="#D8B4FE">Tokens that grow with demand</text>
  </g>
</svg> 